<svg id="Light_1px_category" data-name="Light 1px/category" xmlns="http://www.w3.org/2000/svg" width="20" height="20" viewBox="0 0 20 20">
  <rect id="Light_1px_category_background" data-name="Light 1px/category background" width="20" height="20" fill="#fff" opacity="0"/>
  <path id="Combined_Shape" data-name="Combined Shape" d="M11.459,13.75H9.93a2.294,2.294,0,0,1-2.291-2.291V9.93A2.294,2.294,0,0,1,9.93,7.639h1.528A2.294,2.294,0,0,1,13.75,9.93v1.528A2.294,2.294,0,0,1,11.459,13.75ZM9.93,8.4A1.529,1.529,0,0,0,8.4,9.93v1.528A1.529,1.529,0,0,0,9.93,12.986h1.528a1.529,1.529,0,0,0,1.528-1.528V9.93A1.529,1.529,0,0,0,11.459,8.4ZM3.82,13.75H2.291A2.294,2.294,0,0,1,0,11.459V9.93A2.294,2.294,0,0,1,2.291,7.639H3.82A2.294,2.294,0,0,1,6.111,9.93v1.528A2.294,2.294,0,0,1,3.82,13.75ZM2.291,8.4A1.529,1.529,0,0,0,.764,9.93v1.528a1.529,1.529,0,0,0,1.528,1.528H3.82a1.529,1.529,0,0,0,1.528-1.528V9.93A1.529,1.529,0,0,0,3.82,8.4Zm9.167-2.291H9.93A2.294,2.294,0,0,1,7.639,3.82V2.291A2.294,2.294,0,0,1,9.93,0h1.528A2.294,2.294,0,0,1,13.75,2.291V3.82A2.294,2.294,0,0,1,11.459,6.111ZM9.93.764A1.529,1.529,0,0,0,8.4,2.291V3.82A1.529,1.529,0,0,0,9.93,5.347h1.528A1.529,1.529,0,0,0,12.986,3.82V2.291A1.529,1.529,0,0,0,11.459.764ZM3.82,6.111H2.291A2.294,2.294,0,0,1,0,3.82V2.291A2.294,2.294,0,0,1,2.291,0H3.82A2.294,2.294,0,0,1,6.111,2.291V3.82A2.294,2.294,0,0,1,3.82,6.111ZM2.291.764A1.529,1.529,0,0,0,.764,2.291V3.82A1.529,1.529,0,0,0,2.291,5.347H3.82A1.529,1.529,0,0,0,5.347,3.82V2.291A1.529,1.529,0,0,0,3.82.764Z" transform="translate(3.125 3.125)"/>
</svg>
