<svg id="Light_1px_check_circled" data-name="Light 1px/check_circled" xmlns="http://www.w3.org/2000/svg" width="25" height="25" viewBox="0 0 25 25">
  <rect id="Light_1px_check_circled_background" data-name="Light 1px/check_circled background" width="25" height="25" fill="#fff"/>
  <path id="Combined_Shape" data-name="Combined Shape" d="M10.417,20.833A10.417,10.417,0,1,1,20.833,10.417,10.428,10.428,0,0,1,10.417,20.833Zm0-19.792A9.373,9.373,0,1,0,18.3,5.348L10.48,13.174a1.565,1.565,0,0,1-2.211,0L4.84,9.743a.521.521,0,1,1,.736-.737l3.43,3.43a.521.521,0,0,0,.737,0L17.685,4.5A9.346,9.346,0,0,0,10.417,1.042Z" transform="translate(2.083 2.083)"/>
</svg>
