<svg id="Light_1px_document" data-name="Light 1px/document" xmlns="http://www.w3.org/2000/svg" width="20" height="20" viewBox="0 0 20 20">
  <rect id="Light_1px_document_background" data-name="Light 1px/document background" width="20" height="20" fill="#fff" opacity="0"/>
  <path id="Combined_Shape" data-name="Combined Shape" d="M11.459,15.833H2.291A2.337,2.337,0,0,1,0,13.458V2.375A2.337,2.337,0,0,1,2.291,0H9.745C9.8,0,9.866,0,9.93.008l.02,0,.021,0A2.267,2.267,0,0,1,11.366.7l1.713,1.776a2.417,2.417,0,0,1,.663,1.488c.005.068.008.13.008.192v9.308A2.337,2.337,0,0,1,11.459,15.833ZM2.291.792A1.558,1.558,0,0,0,.764,2.375V13.458a1.558,1.558,0,0,0,1.528,1.583h9.167a1.558,1.558,0,0,0,1.528-1.583V4.75H11.459A2.338,2.338,0,0,1,9.166,2.375V.792ZM9.93.8h0V2.375a1.559,1.559,0,0,0,1.528,1.584h1.516a1.606,1.606,0,0,0-.436-.928L10.825,1.255A1.516,1.516,0,0,0,9.971.809l-.017,0Z" transform="translate(3.125 2.083)" fill="#0008c6"/>
  <path id="Path_5896" data-name="Path 5896" d="M3.941,4.306,5.186,2.882h7.1V5.789l1.852,1.418h2.078v1.82L3.838,9.034Z" fill="#0008c6" stroke="#0008c6" stroke-width="1"/>
  <path id="Path_5897" data-name="Path 5897" d="M.1,1.8.324.441,1.348,0H11l.975.587.406,4.894V7.787a24.6,24.6,0,0,1-5.252.526A67.325,67.325,0,0,1,0,7.8Z" transform="translate(16.168 17) rotate(-180)" fill="#0008c6" stroke="#0008c6" stroke-width="1"/>
  <text id="Doc" transform="translate(5.479 12)" fill="#fff" font-size="5" font-family="SourceSerifPro-Regular, Source Serif Pro"><tspan x="0" y="0">Doc</tspan></text>
</svg>
