<svg id="Light_1px_document" data-name="Light 1px/document" xmlns="http://www.w3.org/2000/svg" width="25" height="25" viewBox="0 0 25 25">
  <rect id="Light_1px_document_background" data-name="Light 1px/document background" width="25" height="25" fill="#e2875e" opacity="0"/>
  <g id="Group" transform="translate(3.125 2.083)">
    <path id="Combined_Shape" data-name="Combined Shape" d="M15.625,20.833H3.125A3.128,3.128,0,0,1,0,17.708V3.125A3.128,3.128,0,0,1,3.125,0H13.289c.08,0,.165,0,.252.01l.027,0,.029,0a3.135,3.135,0,0,1,1.9.9l2.336,2.336a3.13,3.13,0,0,1,.9,1.957c.007.089.01.172.01.252V17.708A3.128,3.128,0,0,1,15.625,20.833ZM3.125,1.042A2.085,2.085,0,0,0,1.042,3.125V17.708a2.085,2.085,0,0,0,2.083,2.083h12.5a2.085,2.085,0,0,0,2.083-2.083V6.25H15.625A3.129,3.129,0,0,1,12.5,3.125V1.042Zm10.417.016h0V3.125a2.086,2.086,0,0,0,2.084,2.084h2.067A2.083,2.083,0,0,0,17.1,3.988L14.762,1.652A2.093,2.093,0,0,0,13.6,1.064l-.024,0Z" fill="#e2875e"/>
    <path id="Vector_492_Stroke_" data-name="Vector 492 (Stroke)" d="M.521,0H8.854a.521.521,0,1,1,0,1.042H.521A.521.521,0,0,1,.521,0Z" transform="translate(4.688 8.854)" fill="#e2875e"/>
  </g>
</svg>
