<svg id="Light_1px_folder" data-name="Light 1px/folder" xmlns="http://www.w3.org/2000/svg" width="25" height="25" viewBox="0 0 25 25">
  <rect id="Light_1px_folder_background" data-name="Light 1px/folder background" width="25" height="25" fill="#fff" opacity="0"/>
  <path id="Combined_Shape" data-name="Combined Shape" d="M8.638,2.82,7.47,1.652A2.083,2.083,0,0,0,6,1.042H3.125A2.083,2.083,0,0,0,1.042,3.125v12.5a2.083,2.083,0,0,0,2.083,2.083H17.708a2.083,2.083,0,0,0,2.083-2.083V5.208a2.083,2.083,0,0,0-2.083-2.083H9.375A1.042,1.042,0,0,1,8.638,2.82Z" transform="translate(2.083 3.125)" fill="#a53a01"/>
  <line id="Line_770" data-name="Line 770" x2="12" transform="translate(6.501 11.5)" fill="none" stroke="#fff" stroke-linecap="round" stroke-width="1"/>
</svg>
