<svg id="Light_1px_folder" data-name="Light 1px/folder" xmlns="http://www.w3.org/2000/svg" width="25" height="25" viewBox="0 0 25 25">
  <rect id="Light_1px_folder_background" data-name="Light 1px/folder background" width="25" height="25" fill="#fff" opacity="0"/>
  <path id="Combined_Shape" data-name="Combined Shape" d="M17.708,18.75H3.125A3.128,3.128,0,0,1,0,15.625V3.125A3.128,3.128,0,0,1,3.125,0H6a3.1,3.1,0,0,1,2.21.915L9.375,2.083h8.333a3.129,3.129,0,0,1,3.125,3.126V15.625A3.128,3.128,0,0,1,17.708,18.75ZM3.125,1.042A2.085,2.085,0,0,0,1.042,3.125v12.5a2.085,2.085,0,0,0,2.083,2.083H17.708a2.085,2.085,0,0,0,2.083-2.083V5.209a2.086,2.086,0,0,0-2.083-2.084H9.375a1.038,1.038,0,0,1-.737-.3L7.47,1.652A2.094,2.094,0,0,0,6,1.042Z" transform="translate(2.083 3.125)" fill="#a53a01"/>
  <line id="Line_770" data-name="Line 770" x2="12" transform="translate(6.501 11.5)" fill="none" stroke="#a53a01" stroke-linecap="round" stroke-width="1"/>
</svg>
