<svg id="Light_1px_folder" data-name="Light 1px/folder" xmlns="http://www.w3.org/2000/svg" width="20" height="20" viewBox="0 0 20 20">
  <rect id="Light_1px_folder_background" data-name="Light 1px/folder background" width="20" height="20" fill="#fff" opacity="0"/>
  <path id="Combined_Shape" data-name="Combined Shape" d="M5.571,1.245,4.714.427A1.565,1.565,0,0,0,3.634,0H1.528A1.494,1.494,0,0,0,0,1.458v8.75a1.494,1.494,0,0,0,1.528,1.458H12.222a1.494,1.494,0,0,0,1.528-1.458V2.917a1.494,1.494,0,0,0-1.528-1.458H6.111A.783.783,0,0,1,5.571,1.245Z" transform="translate(3.125 4.167)" fill="#a53a01"/>
  <line id="Line_770" data-name="Line 770" x2="9" transform="translate(5.5 8.5)" fill="none" stroke="#fff" stroke-linecap="round" stroke-width="1"/>
</svg>
