<svg xmlns="http://www.w3.org/2000/svg" width="20" height="20" viewBox="0 0 20 20">
  <g id="Group_4648" data-name="Group 4648" transform="translate(-428 -407)">
    <g id="Group_4646" data-name="Group 4646">
      <rect id="Rectangle_5474" data-name="Rectangle 5474" width="20" height="20" transform="translate(428 407)" fill="#fff" opacity="0"/>
      <g id="Group_4645" data-name="Group 4645">
        <path id="Path_5902" data-name="Path 5902" d="M18219.242,414.842c-.727-1.5-2.178-1.5-2.9,0a8.57,8.57,0,0,0,0,6.014c.725,1.5,2.176,1.5,2.9,0A8.57,8.57,0,0,0,18219.242,414.842Z" transform="translate(-17785.424 -0.849)" fill="#e2875e" stroke="#e2875e" stroke-width="1"/>
        <path id="Path_5903" data-name="Path 5903" d="M18220.363,414.279s3.736-5.351,5-3.055,1.311,10,.061,12.238-5.062-3.276-5.062-3.276" transform="translate(-17786)" fill="none" stroke="#e2875e" stroke-width="1"/>
        <path id="Path_5904" data-name="Path 5904" d="M18227.84,414.123s2.012,1.851,2.012,3.821-2.012,4.059-2.012,4.059" transform="translate(-17786 -0.739)" fill="none" stroke="#e2875e" stroke-linecap="round" stroke-width="1"/>
        <path id="Path_5905" data-name="Path 5905" d="M18227.84,414.123a14.038,14.038,0,0,1,2.012,6.547,16.751,16.751,0,0,1-2.012,6.955" transform="translate(-17783.988 -3.471)" fill="none" stroke="#e2875e" stroke-linecap="round" stroke-width="1"/>
        <path id="Path_5906" data-name="Path 5906" d="M18220.777,413.853V420.8s3.307,4.461,4.408,2.27,1.016-8.6,0-11.034S18220.777,413.853,18220.777,413.853Z" transform="translate(-17786.414 -0.159)" fill="#e2875e" stroke="#e2875e" stroke-width="1"/>
      </g>
    </g>
    <text id="MP3" transform="translate(431 418.5)" fill="#fff" font-size="4" font-family="SourceSerifPro-Semibold, Source Serif Pro" font-weight="600"><tspan x="0" y="0">MP3</tspan></text>
  </g>
</svg>
