<svg xmlns="http://www.w3.org/2000/svg" width="16.833" height="10.584" viewBox="0 0 16.833 10.584">
  <g id="Group_4619" data-name="Group 4619" transform="translate(-1.584 -4.709)">
    <path id="Combined_Shape" data-name="Combined Shape" d="M9.5,9.584H2.375A2.234,2.234,0,0,1,0,7.53V2.053A2.234,2.234,0,0,1,2.375,0H9.5a2.235,2.235,0,0,1,2.375,2.053v.8L13.886,1.4a1.28,1.28,0,0,1,.754-.24,1.127,1.127,0,0,1,1.193,1.029v5.2A1.127,1.127,0,0,1,14.639,8.42a1.28,1.28,0,0,1-.753-.24L11.875,6.731v.8A2.235,2.235,0,0,1,9.5,9.584ZM2.375.684A1.489,1.489,0,0,0,.792,2.053V7.53A1.489,1.489,0,0,0,2.375,8.9H9.5A1.49,1.49,0,0,0,11.084,7.53V2.053A1.49,1.49,0,0,0,9.5.684ZM14.644,1.849a.427.427,0,0,0-.252.08L11.875,3.743v2.1l2.517,1.814a.427.427,0,0,0,.251.08.442.442,0,0,0,.276-.095.317.317,0,0,0,.122-.248v-5.2A.375.375,0,0,0,14.644,1.849Z" transform="translate(2.084 5.209)" fill="#775ee2" stroke="#775ee2" stroke-width="1"/>
    <path id="Path_5898" data-name="Path 5898" d="M18176.52,397.367h0l-1.209,1.1v6.017h9.148v-6.017l-.8-1.419h-7.141" transform="translate(-18172 -391)" fill="#775ee2" stroke="#775ee2" stroke-width="1"/>
    <path id="Path_5899" data-name="Path 5899" d="M18175.5,397.222h0l-.2.6v3.317h1.48v-3.317l-.129-.782h-1.156" transform="translate(-18160.457 -389.178)" fill="#775ee2" stroke="#775ee2" stroke-width="1"/>
  </g>
</svg>
