<svg id="Group_2328" data-name="Group 2328" xmlns="http://www.w3.org/2000/svg" width="25" height="25" viewBox="0 0 25 25">
  <g id="Light_1px_calendar" data-name="Light 1px/calendar">
    <rect id="Light_1px_calendar_background" data-name="Light 1px/calendar background" width="25" height="25" fill="#fff"/>
    <path id="Combined_Shape" data-name="Combined Shape" d="M17.708,20.313H3.125A3.129,3.129,0,0,1,0,17.187V4.688A3.128,3.128,0,0,1,3.125,1.563H4.688V.521a.521.521,0,1,1,1.042,0V1.563H15.1V.521a.521.521,0,1,1,1.042,0V1.563h1.563a3.128,3.128,0,0,1,3.125,3.125v12.5A3.129,3.129,0,0,1,17.708,20.313ZM1.042,9.375v7.812a2.086,2.086,0,0,0,2.083,2.084H17.708a2.086,2.086,0,0,0,2.083-2.084V9.375ZM3.125,2.6A2.085,2.085,0,0,0,1.042,4.688V8.333h18.75V4.688A2.085,2.085,0,0,0,17.708,2.6H16.146V3.646a.521.521,0,0,1-1.042,0V2.6H5.729V3.646a.521.521,0,0,1-1.042,0V2.6Z" transform="translate(2.083 2.604)"/>
  </g>
</svg>
