<svg id="Light_1px_home" data-name="Light 1px/home" xmlns="http://www.w3.org/2000/svg" width="25" height="25" viewBox="0 0 25 25">
  <rect id="Light_1px_home_background" data-name="Light 1px/home background" width="25" height="25" fill="#fff" opacity="0"/>
  <path id="Combined_Shape" data-name="Combined Shape" d="M17.708,20.8H3.125A3.128,3.128,0,0,1,0,17.671V9.687A3.129,3.129,0,0,1,1.034,7.365L8.326.8a3.125,3.125,0,0,1,4.181,0L19.8,7.365a3.129,3.129,0,0,1,1.034,2.322v7.984A3.128,3.128,0,0,1,17.708,20.8ZM9.375,10.379h2.083A3.129,3.129,0,0,1,14.584,13.5v6.25h3.125a2.085,2.085,0,0,0,2.083-2.083V9.687a2.082,2.082,0,0,0-.69-1.548L11.811,1.577a2.082,2.082,0,0,0-2.787,0L1.732,8.139a2.082,2.082,0,0,0-.69,1.548v7.984a2.085,2.085,0,0,0,2.083,2.083H6.25V13.5A3.128,3.128,0,0,1,9.375,10.379Zm0,1.042A2.085,2.085,0,0,0,7.292,13.5v6.25h6.249V13.5a2.085,2.085,0,0,0-2.083-2.083Z" transform="translate(2.083 2.121)"/>
</svg>
