<svg xmlns="http://www.w3.org/2000/svg" width="21" height="21" viewBox="0 0 21 21">
  <g id="Light_1px_show" data-name="Light 1px/show" transform="translate(0.5 0.5)">
    <rect id="Light_1px_show_background" data-name="Light 1px/show background" width="20" height="20" fill="#fff" stroke="#a53a01" stroke-width="1" opacity="0.002"/>
    <g id="Group" transform="translate(2.383 3.621)">
      <path id="Combined_Shape" data-name="Combined Shape" d="M7.617,12.759a7.076,7.076,0,0,1-4.869-2,12.167,12.167,0,0,1-2.5-3.351,2.288,2.288,0,0,1,0-2.066A12.171,12.171,0,0,1,2.747,2,7.076,7.076,0,0,1,7.617,0a7.077,7.077,0,0,1,4.87,2,12.184,12.184,0,0,1,2.5,3.35,2.288,2.288,0,0,1,0,2.066,12.18,12.18,0,0,1-2.5,3.351A7.076,7.076,0,0,1,7.617,12.759Zm0-11.847a6.382,6.382,0,0,0-4.384,1.8,11.249,11.249,0,0,0-2.313,3.1,1.234,1.234,0,0,0,0,1.129,11.253,11.253,0,0,0,2.313,3.1,6.382,6.382,0,0,0,4.384,1.8A6.383,6.383,0,0,0,12,10.046a11.251,11.251,0,0,0,2.313-3.1,1.234,1.234,0,0,0,0-1.129A11.248,11.248,0,0,0,12,2.712,6.383,6.383,0,0,0,7.617.911Z" transform="translate(0)" fill="#a53a01" stroke="#a53a01" stroke-width="1"/>
      <path id="Combined_Shape-2" data-name="Combined Shape" d="M3.125,6.25A3.125,3.125,0,1,1,6.25,3.125,3.129,3.129,0,0,1,3.125,6.25Zm0-5.209A2.084,2.084,0,1,0,5.209,3.125,2.085,2.085,0,0,0,3.125,1.042Z" transform="translate(4.492 3.254)" fill="#a53a01" stroke="#a53a01" stroke-width="1"/>
    </g>
  </g>
</svg>
