<svg id="Light_1px_image" data-name="Light 1px/image" xmlns="http://www.w3.org/2000/svg" width="20" height="20" viewBox="0 0 20 20">
  <rect id="Light_1px_image_background" data-name="Light 1px/image background" width="20" height="20" fill="#00767b" opacity="0"/>
  <path id="Shape" d="M13.458,15.833H2.375A2.375,2.375,0,0,1,0,13.6l0-.14V2.375A2.375,2.375,0,0,1,2.235,0l.14,0H13.458A2.377,2.377,0,0,1,15.83,2.235l0,.14V13.458a2.374,2.374,0,0,1-.557,1.528l-.138.151a2.375,2.375,0,0,1-1.517.69ZM5.034,5.983a1.569,1.569,0,0,0-1.13.474l-.087.1L.792,10.182v3.276a1.589,1.589,0,0,0,1.465,1.579l.118,0H13.458A1.573,1.573,0,0,0,13.84,15l.12-.035L6.2,6.5A1.566,1.566,0,0,0,5.034,5.983Zm0-.792a2.347,2.347,0,0,1,1.75.77l7.847,8.561a1.581,1.581,0,0,0,.41-1.064V2.375A1.585,1.585,0,0,0,13.458.792H2.375A1.585,1.585,0,0,0,.792,2.375V8.946l2.417-2.9A2.37,2.37,0,0,1,5.034,5.191Zm6.842.351a1.584,1.584,0,1,1,1.583-1.583A1.585,1.585,0,0,1,11.875,5.542Zm0-2.375a.792.792,0,1,0,.792.792A.793.793,0,0,0,11.875,3.166Z" transform="translate(2.083 2.083)" fill="#00767b"/>
</svg>
