<svg id="Light_1px_list" data-name="Light 1px/list" xmlns="http://www.w3.org/2000/svg" width="20" height="20" viewBox="0 0 20 20">
  <rect id="Light_1px_list_background" data-name="Light 1px/list background" width="20" height="20" fill="#fff" opacity="0"/>
  <g id="Group" transform="translate(3.229 4.271)">
    <path id="Vector_567_Stroke_" data-name="Vector 567 (Stroke)" d="M.521,0h12.5a.521.521,0,0,1,0,1.042H.521A.521.521,0,0,1,.521,0Z"/>
    <path id="Vector_568_Stroke_" data-name="Vector 568 (Stroke)" d="M.521,0h12.5a.521.521,0,0,1,0,1.042H.521A.521.521,0,0,1,.521,0Z" transform="translate(0 5.208)"/>
    <path id="Vector_569_Stroke_" data-name="Vector 569 (Stroke)" d="M.521,0h12.5a.521.521,0,0,1,0,1.042H.521A.521.521,0,0,1,.521,0Z" transform="translate(0 10.417)"/>
  </g>
</svg>
