<svg id="Light_1px_message" data-name="Light 1px/message" xmlns="http://www.w3.org/2000/svg" width="25" height="25" viewBox="0 0 25 25">
  <rect id="Light_1px_message_background" data-name="Light 1px/message background" width="25" height="25" fill="#fff"/>
  <g id="Group" transform="translate(2.083 3.125)">
    <path id="Combined_Shape" data-name="Combined Shape" d="M2.094,19.514a2.137,2.137,0,0,1-1.451-.578A2.05,2.05,0,0,1,0,17.427V3.125A3.128,3.128,0,0,1,3.125,0H17.708a3.128,3.128,0,0,1,3.125,3.125V13.541a3.129,3.129,0,0,1-3.125,3.126H6.25L3.417,19.028A2.048,2.048,0,0,1,2.094,19.514ZM3.125,1.042A2.085,2.085,0,0,0,1.042,3.125v14.3A1.048,1.048,0,0,0,2.089,18.47a1.025,1.025,0,0,0,.662-.243l2.832-2.361a1.047,1.047,0,0,1,.668-.241H17.708a2.086,2.086,0,0,0,2.083-2.084V3.125a2.085,2.085,0,0,0-2.083-2.083Z"/>
    <path id="Vector_409_Stroke_" data-name="Vector 409 (Stroke)" d="M.521,0H8.854a.521.521,0,1,1,0,1.042H.521A.521.521,0,0,1,.521,0Z" transform="translate(5.729 5.729)"/>
    <path id="Vector_410_Stroke_" data-name="Vector 410 (Stroke)" d="M.521,0H4.688a.521.521,0,0,1,0,1.042H.521A.521.521,0,0,1,.521,0Z" transform="translate(5.729 9.896)"/>
  </g>
</svg>
