<svg id="Light_1px_settings" data-name="Light 1px/settings" xmlns="http://www.w3.org/2000/svg" width="20" height="20" viewBox="0 0 20 20">
  <rect id="Light_1px_settings_background" data-name="Light 1px/settings background" width="20" height="20" fill="#fff" opacity="0"/>
  <g id="Group" transform="translate(2.001 2)">
    <path id="Combined_Shape" data-name="Combined Shape" d="M8.492,16H7.509a1.577,1.577,0,0,1-1.5-.994L5.7,14.16a1.734,1.734,0,0,0-.872-.914c-.071-.037-.13-.068-.185-.1a2.056,2.056,0,0,0-.985-.267,1.7,1.7,0,0,0-.314.029l-.951.179a1.722,1.722,0,0,1-.318.03A1.618,1.618,0,0,1,.7,12.391l-.492-.782A1.361,1.361,0,0,1,.4,9.917l.645-.668A1.6,1.6,0,0,0,1.47,8.1c0-.066,0-.132,0-.2a1.6,1.6,0,0,0-.426-1.15L.4,6.083A1.36,1.36,0,0,1,.213,4.391L.7,3.609a1.617,1.617,0,0,1,1.37-.727,1.725,1.725,0,0,1,.318.03l.951.179a1.7,1.7,0,0,0,.312.029,2.056,2.056,0,0,0,.986-.267c.06-.033.122-.066.185-.1A1.737,1.737,0,0,0,5.7,1.84L6.006.994A1.577,1.577,0,0,1,7.509,0h.983a1.577,1.577,0,0,1,1.5.994l.306.846a1.737,1.737,0,0,0,.872.914c.063.032.125.065.185.1a2.059,2.059,0,0,0,.986.267,1.7,1.7,0,0,0,.312-.029l.951-.179a1.725,1.725,0,0,1,.318-.03,1.617,1.617,0,0,1,1.37.727l.492.782A1.361,1.361,0,0,1,15.6,6.083l-.645.668A1.6,1.6,0,0,0,14.53,7.9c0,.065,0,.131,0,.2a1.6,1.6,0,0,0,.426,1.149l.645.668a1.362,1.362,0,0,1,.187,1.693l-.492.782a1.618,1.618,0,0,1-1.371.727,1.722,1.722,0,0,1-.318-.03l-.951-.179a1.7,1.7,0,0,0-.314-.029,2.056,2.056,0,0,0-.985.267c-.054.03-.113.061-.185.1a1.734,1.734,0,0,0-.872.914l-.306.846A1.577,1.577,0,0,1,8.492,16ZM3.657,12.154a2.916,2.916,0,0,1,1.393.37l.162.086a2.473,2.473,0,0,1,1.238,1.32l.306.846a.79.79,0,0,0,.752.5h.983a.789.789,0,0,0,.751-.5l.306-.846a2.473,2.473,0,0,1,1.238-1.32l.162-.086a2.916,2.916,0,0,1,1.393-.37,2.567,2.567,0,0,1,.472.044l.951.179a.863.863,0,0,0,.159.015.809.809,0,0,0,.685-.364l.492-.782a.681.681,0,0,0-.093-.846l-.645-.668a2.286,2.286,0,0,1-.626-1.644c0-.057,0-.116,0-.174a2.286,2.286,0,0,1,.626-1.644l.645-.668a.681.681,0,0,0,.093-.846l-.492-.782a.809.809,0,0,0-.685-.364.863.863,0,0,0-.159.015l-.951.179a2.558,2.558,0,0,1-.473.044,2.916,2.916,0,0,1-1.393-.371c-.055-.03-.11-.059-.162-.086A2.478,2.478,0,0,1,9.55,2.07l-.306-.846a.789.789,0,0,0-.751-.5H7.509a.789.789,0,0,0-.752.5l-.306.846A2.478,2.478,0,0,1,5.212,3.39c-.052.026-.106.055-.162.086a2.916,2.916,0,0,1-1.393.371A2.557,2.557,0,0,1,3.185,3.8l-.951-.179a.863.863,0,0,0-.159-.015.809.809,0,0,0-.685.364L.9,4.755A.681.681,0,0,0,.992,5.6l.645.668a2.286,2.286,0,0,1,.626,1.644c0,.058,0,.117,0,.174a2.286,2.286,0,0,1-.626,1.644L.992,10.4a.681.681,0,0,0-.093.846l.492.782a.809.809,0,0,0,.685.364.863.863,0,0,0,.159-.015l.951-.179A2.568,2.568,0,0,1,3.657,12.154Z" transform="translate(0)"/>
    <path id="Combined_Shape-2" data-name="Combined Shape" d="M3.64,7.333A3.667,3.667,0,1,1,7.281,3.666,3.658,3.658,0,0,1,3.64,7.333Zm0-6.417a2.75,2.75,0,1,0,2.731,2.75A2.743,2.743,0,0,0,3.64.917Z" transform="translate(4.36 4.333)"/>
  </g>
</svg>
